<?xml version="1.0" encoding="UTF-8"?>
<!-- Generator: Adobe Illustrator 21.0.0, SVG Export Plug-In . SVG Version: 6.00 Build 0)  -->
<svg version="1.1" id="Layer_1" xmlns="http://www.w3.org/2000/svg" xmlns:xlink="http://www.w3.org/1999/xlink" x="0px" y="0px" viewBox="0 0 499 155" style="enable-background:new 0 0 499 155;" xml:space="preserve">
<style type="text/css">
	.st0{fill:#2191BF;}
</style>
<g>
	<g>
		<path class="st0" d="M118,2.1L81.6,105.9l-0.2-0.1c-7.4,21.1-42.6,15.8-42.6-2.3v-52c0-18.7,33.8-23,44.1-4.3l13.9-35.4    C85.6,3.1,72.5,0,60.9,0C30.5,0,0.5,17.5,0.5,51.5v52c0,34.3,30,51.5,59.7,51.5c19,0,46.1-6.7,55.2-32.4l0.1,0l40.6,0.1l10,30.7    l0.1-0.5c0.4-0.2,0.8-0.5,1.2-0.7c11.4-10.8,20.3-24.3,25.8-39.3L152.9,2.1H118z M124.2,88.8l11.1-44.1h1.1l10.5,44.1H124.2z     M231.7,74.1c4.9,0,10.7-2.4,14-8.7l-8.6-3.9c-2.1,5.4-10.9,4.1-10.9-0.6V47.5c0-4.8,8.7-5.9,11.3-1.1l8-3.2    c-3.1-6.9-8.9-8.9-13.7-8.9c-7.8,0-15.5,4.5-15.5,13.3v13.4C216.4,69.7,224,74.1,231.7,74.1z M267.3,61.2h1.8l9,12.3h12.2    l-10.6-13.3c4.7-1.5,7.6-5.5,7.6-12.7c-0.2-9.1-6.4-12.8-14.4-12.8h-15.5v38.8h9.9V61.2z M267.3,43.9h5.8c6.2,0,6.2,8.9,0,8.9    h-5.8V43.9z M310.9,34.8h-9.8v38.8h9.8V34.8z M322.9,44h10.3v29.5h9.9V44h10.3v-9.3h-30.5V44z M365.6,73.6h9.8V34.8h-9.8V73.6z     M398.6,60.8V47.5c0-4.8,8.7-5.9,11.3-1.1l8-3.2c-3.1-6.9-8.9-8.9-13.7-8.9c-7.8,0-15.5,4.5-15.5,13.3v13.4    c0,8.8,7.7,13.3,15.3,13.3c4.9,0,10.7-2.4,14-8.7l-8.6-3.9C407.4,66.8,398.6,65.5,398.6,60.8z M439.7,34.8l-13.5,38.8h10.5    l2.4-7.8h10.4l2.5,7.8h10.5l-13.9-38.8H439.7z M441.3,57.1l2.9-11.3h0.3l2.7,11.3H441.3z M483.2,63.9V34.8h-9.9v38.8H499v-9.7    H483.2z M227.4,87l-13.5,38.8h10.5l2.4-7.8h10.4l2.5,7.8h10.5L236.4,87H227.4z M229,109.3l2.9-11.3h0.3l2.7,11.3H229z M291,99.7    c-0.2-9.1-6.4-12.8-14.4-12.8H261v38.8h9.9v-12.3h1.8l9,12.3h12.2l-10.6-13.3C288.1,111,291,106.9,291,99.7z M276.7,105H271v-8.9    h5.8C282.9,96.1,282.9,105,276.7,105z M301.7,96.2H312v29.5h9.9V96.2h10.3v-9.3h-30.5V96.2z"/>
	</g>
</g>
</svg>